<svg width="19" height="19" viewBox="0 0 19 19" fill="none" xmlns="http://www.w3.org/2000/svg">
<g clip-path="url(#clip0)">
<path d="M15.9788 12.7944C16.2467 12.5355 16.2467 12.1047 15.9788 11.8368C15.7199 11.578 15.2891 11.578 15.0309 11.8368L10.1756 16.6921L10.1756 0.67034C10.175 0.296856 9.87813 -2.29541e-07 9.50465 -2.43146e-07C9.13117 -2.56751e-07 8.82465 0.296856 8.82465 0.670339L8.82465 16.6921L3.97842 11.8368C3.71052 11.578 3.27912 11.578 3.02088 11.8368C2.75298 12.1047 2.75298 12.5361 3.02088 12.7944L9.02558 18.7991C9.28442 19.067 9.71522 19.067 9.97346 18.7991L15.9788 12.7944Z" fill="white"/>
</g>
<defs>
<clipPath id="clip0">
<rect width="19" height="19" fill="white" transform="translate(19) rotate(90)"/>
</clipPath>
</defs>
</svg>
