<svg width="17" height="17" viewBox="0 0 17 17" fill="none" xmlns="http://www.w3.org/2000/svg">
<path d="M10.4818 11.7865L10.8232 12.1519C11.2706 11.7338 11.7255 11.3229 12.1841 10.9087L12.1845 10.9084C12.4059 10.708 12.6119 10.6452 12.7806 10.653C12.9493 10.6609 13.1498 10.7428 13.3537 10.9635C14.0237 11.6952 14.6927 12.4257 15.3577 13.1596C15.5666 13.3904 15.6296 13.5996 15.621 13.7689C15.6123 13.9391 15.5274 14.1454 15.2934 14.3613C15.1657 14.4787 15.0279 14.6008 14.8861 14.7264C14.5986 14.981 14.2944 15.2503 14.0235 15.5261L14.023 15.5266C13.577 15.9819 13.0478 16.1231 12.3757 16.0539L12.375 16.0538C11.3272 15.9475 10.3597 15.553 9.39544 15.028C7.25443 13.861 5.45071 12.2984 3.96652 10.3568L3.96634 10.3566C2.8633 8.9153 1.98101 7.37102 1.43607 5.66365L1.4355 5.66188C1.1678 4.83379 1.00777 4.03991 1.10728 3.23233C1.16379 2.78291 1.34259 2.42793 1.67428 2.14195L1.67506 2.14128C1.95906 1.8954 2.2445 1.63286 2.5234 1.37633C2.70431 1.20993 2.88248 1.04606 3.05572 0.890903L3.05644 0.89025C3.27746 0.69152 3.48406 0.628438 3.65436 0.636136C3.82485 0.643843 4.0258 0.725537 4.22936 0.943118C4.45398 1.18461 4.6733 1.42707 4.8953 1.67249C5.00739 1.79641 5.12017 1.92108 5.23466 2.04676C5.39825 2.22829 5.56179 2.40782 5.72429 2.58621L5.72479 2.58675C5.88804 2.76596 6.05024 2.94403 6.21222 3.12377L6.21299 3.12462C6.43579 3.3707 6.49985 3.5827 6.49241 3.74734C6.48497 3.91175 6.40234 4.11541 6.16013 4.33739L6.15969 4.33779C6.09461 4.39758 6.02977 4.45722 5.96509 4.51672C5.57949 4.87139 5.19981 5.22063 4.81236 5.56162L4.81231 5.56157L4.80599 5.56732C4.70542 5.65894 4.59256 5.79365 4.54931 5.98592C4.50689 6.17449 4.54966 6.33942 4.59087 6.45173C4.87129 7.21704 5.28719 7.89349 5.74431 8.5117L5.74452 8.51198C6.65561 9.74229 7.70834 10.8611 8.99621 11.7575L8.9984 11.759C9.15158 11.8644 9.30935 11.9544 9.45309 12.0341C9.48548 12.0521 9.51688 12.0694 9.54749 12.0862C9.65757 12.1469 9.75743 12.2019 9.8561 12.2618C9.98542 12.3421 10.1658 12.4146 10.3812 12.3819C10.5855 12.3508 10.732 12.2375 10.8242 12.1509L10.4818 11.7865ZM10.4818 11.7865C10.9328 11.3651 11.3909 10.9514 11.8489 10.5377L11.849 10.5377L14.3802 15.8765C13.8033 16.4654 13.1097 16.6321 12.3245 16.5513C11.1832 16.4354 10.1486 16.0074 9.15613 15.4671C6.95193 14.2656 5.09489 12.6562 3.56928 10.6605C2.43977 9.18459 1.52597 7.58974 0.959745 5.81568C0.682618 4.95843 0.498499 4.08339 0.611113 3.17056C0.681507 2.60973 0.913689 2.13755 1.34779 1.76327C1.62899 1.51981 1.90124 1.26929 2.17376 1.01852C2.35552 0.851268 2.53739 0.683905 2.72214 0.518445C3.3225 -0.0213692 4.04361 0.0122512 4.595 0.602077C4.82205 0.846172 5.04568 1.09339 5.26931 1.3406C5.38112 1.46421 5.49294 1.58782 5.60519 1.71105C5.76821 1.89194 5.93132 2.07099 6.09442 2.25005C6.25753 2.4291 6.42063 2.60815 6.58365 2.78904C7.15873 3.42421 7.12579 4.13059 6.49796 4.706C6.43332 4.76538 6.36875 4.82477 6.30422 4.88413C5.91881 5.23864 5.53461 5.59204 5.14269 5.93696C5.02332 6.0457 5.00799 6.13716 5.06034 6.27971C5.31875 6.98492 5.70585 7.6187 6.14634 8.21442C7.03434 9.41356 8.04976 10.4896 9.28185 11.3471C9.44145 11.457 9.61254 11.5512 9.78382 11.6456C9.89624 11.7075 10.0088 11.7695 10.1182 11.8359C10.2579 11.9236 10.3584 11.9024 10.4818 11.7865Z" stroke="#DB061F"/>
</svg>
