<svg width="55" height="55" viewBox="0 0 55 55" fill="none" xmlns="http://www.w3.org/2000/svg">
<path d="M53.3778 39.2785L54.9998 35.205L54.1854 34.8804C53.6548 34.6689 53.111 34.5426 52.5681 34.4848C52.613 34.4454 52.6601 34.4094 52.7034 34.3692C53.8968 33.2456 54.5819 31.7233 54.6307 30.0842L54.7622 25.7015L53.8852 25.675C53.317 25.6608 52.7612 25.7268 52.2264 25.8582C53.0023 24.4216 53.2146 22.6844 52.664 21.0166L51.2877 16.8528L50.4549 17.1281C49.9119 17.3071 49.4157 17.5606 48.9622 17.865C48.9708 17.8059 48.9849 17.7481 48.9922 17.6895C49.184 16.061 48.7297 14.4553 47.7136 13.1689L44.9966 9.72664L44.3081 10.2696C43.8186 10.6563 43.405 11.1037 43.0671 11.591C42.7006 10.3039 41.9525 9.14985 40.8705 8.38037L37.5558 6.02527L37.0848 6.90008C35.6028 9.65898 36.3645 13.3013 38.7851 15.0209L39.4386 15.4855C38.2088 15.5664 37.0355 16.0101 36.0481 16.789L35.3595 17.3315L38.0756 20.7746C38.6511 21.5034 39.3885 22.0794 40.217 22.4827L41.0054 24.8682C41.2957 25.7486 41.792 26.5434 42.4334 27.2045L42.3576 29.7168C42.3298 30.6438 42.5246 31.5602 42.9006 32.4012L41.9701 34.7357C41.6271 35.5985 41.4965 36.5256 41.5625 37.4436L39.889 39.3204C39.4437 39.8202 39.093 40.3832 38.8335 40.99L36.0489 42.5135C33.2549 44.0418 32.0457 47.4015 33.0708 50.3518C29.4182 51.4056 25.4677 51.4047 21.8168 50.3492C22.8402 47.4006 21.6318 44.0418 18.8378 42.5135L16.1993 41.0692C15.9359 40.4308 15.5758 39.8411 15.1099 39.3196L13.4378 37.4428C13.5033 36.5247 13.3727 35.5977 13.0297 34.7348L12.0992 32.4003C12.4756 31.5593 12.6692 30.643 12.6422 29.7159L12.5668 27.2037C13.207 26.5425 13.7033 25.7478 13.9945 24.8674L14.7828 22.481C15.6105 22.0785 16.3483 21.5026 16.9234 20.7738L19.6394 17.3306L18.9509 16.7881C17.9634 16.0083 16.7893 15.5656 15.56 15.4847L16.2138 15.0201C18.6344 13.3004 19.3966 9.65813 17.9146 6.89923L17.4436 6.02441L14.1285 8.37952C13.0464 9.149 12.2984 10.3039 11.9318 11.5902C11.5944 11.1016 11.1803 10.6545 10.6909 10.2687L10.0023 9.72578L7.28584 13.1681C6.27014 14.4544 5.81582 16.0602 6.00808 17.6886C6.01494 17.7481 6.02907 17.8051 6.03763 17.8642C5.58545 17.5597 5.08788 17.3071 4.54535 17.1272L3.71207 16.8519L2.33626 21.0157C1.7856 22.6836 1.9967 24.4199 2.77217 25.8557C2.23778 25.7251 1.68369 25.66 1.11461 25.675L0.237651 25.7015L0.369109 30.0842C0.418352 31.7233 1.10305 33.2447 2.29687 34.3692C2.33969 34.4094 2.38551 34.4437 2.42918 34.4822C1.8828 34.5417 1.33984 34.6706 0.814866 34.8804L0 35.205L1.62245 39.2785C2.27375 40.9129 3.55963 42.0995 5.07932 42.6994C4.57961 42.943 4.10773 43.2526 3.68167 43.6333L3.02652 44.2165L5.94642 47.4892C7.03748 48.7135 8.54046 49.4397 10.177 49.5335C10.1937 49.5343 10.2104 49.5343 10.2263 49.5352C9.83149 49.9544 9.48593 50.4263 9.20803 50.9517L8.80381 51.716L12.7886 53.8964C13.7315 54.412 14.7635 54.674 15.8053 54.674C16.4129 54.674 17.0253 54.5845 17.6235 54.4051C19.0125 53.9876 20.1892 53.1218 21.011 51.9391C23.0903 52.5775 25.2501 52.9175 27.4494 52.9175C29.6465 52.9175 31.8029 52.5775 33.8801 51.9408C34.7018 53.1218 35.8781 53.9876 37.2672 54.4043C37.8662 54.5837 38.4764 54.6732 39.084 54.6732C40.1258 54.6732 41.1582 54.4111 42.1007 53.8955L46.0855 51.7151L45.6813 50.9508C45.4043 50.4271 45.0596 49.9561 44.666 49.5378C44.7187 49.536 44.7722 49.536 44.8245 49.5335C46.4619 49.4397 47.9641 48.7135 49.0551 47.4901L51.9737 44.2174L51.3186 43.6341C50.887 43.2492 50.4142 42.9422 49.9179 42.7011C51.4398 42.1003 52.7261 40.9138 53.3778 39.2785ZM20.2385 49.5604L17.847 48.3169C15.8614 47.2297 14.9712 44.8691 15.6238 42.7529L17.9968 44.0508C19.9666 45.1286 20.8585 47.4593 20.2385 49.5604ZM10.7718 30.9157L10.592 30.9877C9.22387 31.5332 8.16022 32.5189 7.4978 33.7166L7.43485 31.6278C7.39974 30.4571 7.82237 29.3434 8.62568 28.49C9.22473 27.8541 9.9805 27.4212 10.8129 27.2281L10.8891 29.7703C10.9016 30.157 10.86 30.5419 10.7718 30.9157ZM11.5383 36.6309C10.4691 37.5841 9.78053 38.8503 9.56044 40.2458L8.79053 38.312C8.0065 36.3457 8.75285 34.1409 10.4592 33.0229L11.4004 35.3849C11.5443 35.745 11.6381 36.1214 11.6817 36.502L11.5383 36.6309ZM14.3477 41.2602C13.6146 42.7371 13.4939 44.3707 13.8955 45.8625L12.351 44.1296C11.5713 43.2552 11.1795 42.1303 11.2463 40.9605C11.2959 40.0895 11.597 39.2704 12.1091 38.5882L13.8013 40.4869C14.0154 40.7254 14.1936 40.9866 14.3477 41.2602ZM12.3292 24.3184C12.208 24.6858 12.038 25.034 11.8265 25.3551L11.6338 25.3602C10.2023 25.4031 8.86076 25.9302 7.79539 26.8581L8.44754 24.8824C8.81494 23.7703 9.59384 22.8677 10.6399 22.3419C11.4197 21.9488 12.2791 21.798 13.1261 21.9034L12.3292 24.3184ZM15.5475 19.687C15.3073 19.9915 15.0286 20.2608 14.7207 20.4895L14.5383 20.4291C13.1787 19.979 11.737 20.0159 10.4181 20.5237L11.7083 18.8901C12.4337 17.9708 13.4733 17.3889 14.6372 17.2518C15.5039 17.1491 16.3633 17.3054 17.1242 17.6895L15.5475 19.687ZM15.145 9.81099L16.7491 8.67069C17.2629 10.4957 16.6639 12.5506 15.1986 13.5907L13.5945 14.7306C13.0807 12.9056 13.6806 10.8511 15.145 9.81099ZM8.6625 14.2544L10.2383 12.2594C11.5546 13.8168 11.6415 16.1432 10.3303 17.8051L8.75371 19.8013C8.20219 19.1505 7.85235 18.3515 7.74958 17.4835C7.61298 16.3214 7.93713 15.1742 8.6625 14.2544ZM4.00239 21.5664L4.7997 19.1522C6.57031 20.167 7.44727 22.3226 6.78227 24.3326L5.98453 26.7476C4.21478 25.7328 3.33782 23.5772 4.00239 21.5664ZM2.12388 30.0319L2.04766 27.4893C2.88864 27.6331 3.67097 28.0207 4.30599 28.6197C5.15811 29.4222 5.64754 30.5098 5.68265 31.6805L5.75887 34.2219C4.91789 34.0788 4.13642 33.6913 3.50097 33.0923C2.64757 32.2907 2.15899 31.2026 2.12388 30.0319ZM3.25347 38.6293L2.31271 36.267C3.15284 36.1132 4.01824 36.2109 4.82154 36.5564C5.89761 37.0184 6.72789 37.8736 7.16123 38.9608L8.10199 41.3236C6.09201 41.6854 4.03665 40.5965 3.25347 38.6293ZM7.25586 46.322L5.56361 44.4233C6.30012 43.993 7.14624 43.784 8.01977 43.8367C9.18876 43.9035 10.2623 44.4225 11.0416 45.296L12.7343 47.1955C11.9978 47.6263 11.1551 47.8339 10.2781 47.7813C9.10826 47.7145 8.03562 47.1972 7.25586 46.322ZM17.119 52.7248C15.9458 53.0755 14.7083 52.9458 13.6305 52.3575L11.2313 51.0437C11.8162 50.3034 12.6054 49.7626 13.5192 49.4889C14.6907 49.1352 15.9282 49.2676 17.0043 49.8555L19.4326 51.1182C18.8447 51.8809 18.0504 52.4448 17.119 52.7248ZM43.3198 36.502C43.3647 36.1205 43.4585 35.7441 43.6015 35.3849L44.5423 33.0229C46.2487 34.1409 46.995 36.3457 46.211 38.312L45.4385 40.2526C45.2253 38.9004 44.5633 37.6102 43.4637 36.6309L43.3198 36.502ZM44.1124 29.7694L44.189 27.2272C45.0202 27.4212 45.7772 27.8541 46.3759 28.4891C47.1792 29.3425 47.6018 30.4563 47.5671 31.627L47.5037 33.7149C46.8409 32.5172 45.7781 31.5315 44.41 30.986L44.2301 30.914C44.1415 30.5419 44.1013 30.157 44.1124 29.7694ZM52.8785 30.0319C52.8434 31.2026 52.3544 32.2898 51.5018 33.0923C50.866 33.6913 50.0845 34.0788 49.2435 34.2219L49.3202 31.6805C49.3548 30.5098 49.8443 29.4222 50.6968 28.6197C51.3327 28.0207 52.1137 27.6331 52.9547 27.4893L52.8785 30.0319ZM50.2023 19.1522L50.9991 21.5664C51.6641 23.5772 50.7872 25.7328 49.0166 26.7476L48.2184 24.3326C47.5547 22.3226 48.4316 20.167 50.2023 19.1522ZM44.7633 12.2594L46.3382 14.2544C47.0644 15.1742 47.3881 16.3205 47.2511 17.4844C47.1488 18.3515 46.7998 19.1505 46.247 19.8022L44.6712 17.8059C43.36 16.1424 43.447 13.8168 44.7633 12.2594ZM38.2529 8.67069L39.8569 9.81099C41.3214 10.8519 41.9213 12.9056 41.407 14.7306L39.8034 13.5907C38.3377 12.5506 37.7382 10.4957 38.2529 8.67069ZM37.8791 17.6903C38.6413 17.3062 39.5024 17.1512 40.3661 17.2527C41.5299 17.3897 42.57 17.9716 43.2954 18.891L44.5851 20.5246C43.2671 20.0167 41.8254 19.979 40.4645 20.4291L40.2813 20.4895C39.9734 20.2608 39.6946 19.9915 39.4553 19.687L37.8791 17.6903ZM44.3616 22.3419C45.4077 22.8685 46.1866 23.7712 46.554 24.8824L47.2066 26.8581C46.1412 25.9302 44.7992 25.4022 43.3682 25.3602L43.1751 25.3551C42.964 25.034 42.7944 24.6858 42.6736 24.3184L41.8755 21.9034C42.7233 21.798 43.581 21.9488 44.3616 22.3419ZM42.8929 38.5882C43.405 39.2704 43.7056 40.0895 43.7557 40.9605C43.8234 42.1303 43.4303 43.2552 42.6505 44.1296L40.9557 46.0316C41.4002 44.5377 41.3038 42.8852 40.5977 41.3857C40.7643 41.0667 40.9557 40.7605 41.2002 40.486L42.8929 38.5882ZM36.8925 44.0516L39.2656 42.7538C39.919 44.8699 39.0279 47.2315 37.0406 48.3187L34.6513 49.5617C34.0313 47.4593 34.9232 45.1294 36.8925 44.0516ZM41.2589 52.3575C40.1819 52.9458 38.9449 53.0764 37.7712 52.7248C36.8398 52.4448 36.0447 51.8809 35.4572 51.1182L37.8872 49.8533C38.9633 49.2658 40.2003 49.137 41.371 49.4877C42.284 49.7626 43.0736 50.3034 43.6576 51.0429L41.2589 52.3575ZM47.7457 46.322C46.9663 47.1963 45.8937 47.7145 44.7239 47.7813C43.8486 47.8331 43.0042 47.6254 42.2677 47.1955L43.9599 45.296C44.7397 44.4225 45.8123 43.9035 46.9822 43.8367C47.8591 43.7849 48.7018 43.993 49.4383 44.4233L47.7457 46.322ZM46.8995 41.3236L47.8407 38.9608C48.6243 36.994 50.6818 35.9038 52.6892 36.2678L51.7481 38.6293C50.9645 40.5965 48.9087 41.6845 46.8995 41.3236Z" fill="#F8F8F8"/>
</svg>
