<svg width="70" height="76" viewBox="0 0 70 76" fill="none" xmlns="http://www.w3.org/2000/svg">
<path d="M35 25V61" stroke="black" stroke-width="2"/>
<path d="M35 43C23.4203 43 14 33.3551 14 21.5002C14 9.64536 23.4207 0 35 0C46.5793 0 56 9.64493 56 21.4998C56 33.3546 46.5797 43 35 43Z" fill="#DB061F"/>
<path d="M41.6718 11.853C39.8083 11.2656 37.5077 10.9268 35 10.9268C32.4923 10.9268 30.1917 11.2656 28.3282 11.853C23.3819 13.4119 20 16.6652 20 20.3929C20 25.6568 26.7178 29.9268 35 29.9268C43.2822 29.9268 50 25.6568 50 20.3929C50 16.6652 46.6181 13.4119 41.6718 11.853ZM35 25.8376C33.7577 25.8376 32.7454 23.4428 32.6994 20.4606C33.4356 20.5284 34.2178 20.551 35 20.551C35.7822 20.551 36.5644 20.5058 37.3006 20.4606C37.2546 23.4428 36.2423 25.8376 35 25.8376ZM32.8604 18.0885C33.2055 15.9874 34.0337 14.4963 35 14.4963C35.9663 14.4963 36.8175 15.9874 37.1396 18.0885C36.4494 18.1562 35.7362 18.1788 35 18.1788C34.2638 18.1788 33.5506 18.1562 32.8604 18.0885ZM38.4739 17.9303C37.9678 14.6319 36.6104 12.2597 35.023 12.2597C33.4126 12.2597 32.0552 14.6319 31.5491 17.9303C28.4893 17.4785 26.3727 16.3941 26.3727 15.1741C26.3727 13.5023 30.2377 12.1467 35.023 12.1467C39.7853 12.1467 43.6733 13.5023 43.6733 15.1741C43.6503 16.3941 41.5107 17.4785 38.4739 17.9303ZM22.1856 20.054C22.1856 18.4499 22.8298 16.9363 23.911 15.6259C23.911 15.7163 23.911 15.8067 23.911 15.897C23.911 17.9303 27.0169 19.6473 31.342 20.2799C31.342 20.4381 31.342 20.5962 31.342 20.7318C31.342 24.5046 32.4003 27.7127 33.8727 28.7971C27.316 28.4131 22.1856 24.6402 22.1856 20.054ZM36.1273 28.8197C37.5997 27.7127 38.658 24.5272 38.658 20.7543C38.658 20.5962 38.658 20.4381 38.658 20.3025C42.9831 19.6473 46.089 17.9303 46.089 15.897C46.089 15.8067 46.089 15.7163 46.066 15.6259C47.1702 16.9363 47.7914 18.4499 47.7914 20.054C47.8144 24.6402 42.6841 28.4131 36.1273 28.8197Z" fill="white"/>
<g filter="url(#filter0_f)">
<ellipse cx="35" cy="59" rx="25" ry="7" fill="black" fill-opacity="0.21"/>
</g>
<defs>
<filter id="filter0_f" x="0" y="42" width="70" height="34" filterUnits="userSpaceOnUse" color-interpolation-filters="sRGB">
<feFlood flood-opacity="0" result="BackgroundImageFix"/>
<feBlend mode="normal" in="SourceGraphic" in2="BackgroundImageFix" result="shape"/>
<feGaussianBlur stdDeviation="5" result="effect1_foregroundBlur"/>
</filter>
</defs>
</svg>
