<svg width="119" height="15" viewBox="0 0 119 15" fill="none" xmlns="http://www.w3.org/2000/svg">
<path d="M7.75564 6.70281C6.98008 5.98131 6.09 5.74081 5.04377 5.74081C3.7581 5.74081 3.045 6.13482 3.045 6.81027C3.045 7.51129 3.69044 7.90019 5.09062 7.98717C7.15705 8.12022 9.77523 8.57563 9.77523 11.436C9.77523 13.3344 8.19808 14.9719 5.06459 14.9719C3.33128 14.9719 1.59797 14.6904 0 13.053L1.33772 11.1546C2.11328 12.004 3.89344 12.6385 5.11144 12.659C6.13164 12.6795 7.08939 12.1575 7.08939 11.3695C7.08939 10.6275 6.46998 10.3205 4.91364 10.2335C2.84721 10.08 0.38518 9.33806 0.38518 6.89214C0.38518 4.40528 3.00336 3.53027 5.00733 3.53027C6.71982 3.53027 8.00549 3.85776 9.27034 4.94768L7.75564 6.70281Z" fill="white"/>
<path d="M22.0483 9.23639C22.0483 12.3373 19.8934 14.8497 16.3383 14.8497C12.7832 14.8497 10.6543 12.3373 10.6543 9.23639C10.6543 6.15596 12.83 3.62305 16.3175 3.62305C19.8049 3.62305 22.0483 6.15596 22.0483 9.23639ZM13.3662 9.23639C13.3662 10.8738 14.3656 12.4038 16.3435 12.4038C18.3215 12.4038 19.3208 10.8738 19.3208 9.23639C19.3208 7.61942 18.1653 6.0485 16.3435 6.0485C14.3864 6.0485 13.3662 7.61942 13.3662 9.23639Z" fill="white"/>
<path d="M25.9371 3.87906V9.47705C25.9371 11.1145 26.848 12.3579 28.5813 12.3579C30.247 12.3579 31.3817 10.9814 31.3817 9.34401V3.83301L34.0676 3.84324V14.6299H31.6472L31.4702 13.1664C30.3355 14.2563 29.2944 14.7834 27.7589 14.7834C25.1408 14.7834 23.2305 12.8389 23.2305 9.49752V3.86883L25.9371 3.87906Z" fill="white"/>
<path d="M40.0875 0.729492L40.1305 3.86313H43.1495V6.15555H40.1045V10.8069C40.1045 11.8354 40.6823 12.3369 41.5255 12.3369C41.5255 12.3369 42.2178 12.342 42.8997 12.0913L43.3994 14.2199C43.3994 14.2199 42.1709 14.7112 41.3485 14.7367C38.9698 14.8237 37.4187 13.4933 37.4187 10.8069V6.15555H35.373V3.86313H37.4187V0.966913L40.0875 0.729492Z" fill="white"/>
<path d="M47.721 0V5.30632C48.6995 4.06289 49.8967 3.68935 51.1408 3.68935C54.2482 3.68935 55.6276 5.76174 55.6276 8.92916V14.6039H52.9157V8.94962C52.9157 6.9847 51.8695 6.15574 50.4276 6.15574C48.8297 6.15574 47.7158 7.48616 47.7158 9.10313V14.6039H45.0039V0.281435L47.721 0Z" fill="white"/>
<path d="M64.7677 14.6754V8.9086C64.7677 7.49119 64.0129 6.2017 62.5242 6.2017C61.0564 6.2017 60.1923 7.49119 60.1923 8.9086V14.6703H57.4805V3.86324L59.9893 3.88882L60.1871 5.19877C60.7649 4.10885 62.0298 3.71484 63.076 3.71484C64.3877 3.71484 65.6942 4.23678 66.3188 5.72582C67.2973 4.19584 68.5622 3.7609 69.9832 3.7609C73.0907 3.7609 74.6262 5.63883 74.6262 8.86766V14.6754H71.9143V8.86766C71.9143 7.45025 71.3157 6.24776 69.8479 6.24776C68.38 6.24776 67.3182 7.49119 67.3182 8.91371L67.4691 14.6754H64.7677Z" fill="white"/>
<path d="M78.5875 10.168C78.7644 11.4984 79.9408 12.4604 81.8511 12.4604C82.8505 12.4604 84.1622 12.0868 84.7816 11.4574L86.5149 13.1409C85.3593 14.3178 83.4699 14.8858 81.8042 14.8858C78.0305 14.8858 75.7871 12.5934 75.7871 9.14455C75.7871 5.86968 78.0513 3.51074 81.6064 3.51074C85.2708 3.51074 87.5611 5.73664 87.1343 10.168H78.5875ZM84.5369 7.96253C84.3599 6.56559 83.2513 5.86456 81.6949 5.86456C80.2271 5.86456 79.0299 6.56559 78.6291 7.96253H84.5369Z" fill="white"/>
<path d="M100.255 0V14.609H97.7254L97.5484 13.1251C96.7052 14.4146 95.3518 14.8495 94.0193 14.8495C90.7973 14.8495 88.377 12.7515 88.377 9.21571C88.377 5.50589 90.7557 3.5819 93.9516 3.5819C95.1072 3.5819 96.903 4.19593 97.5484 5.30632V0.286552L100.255 0ZM91.0784 9.21571C91.0784 11.0936 92.4578 12.3831 94.1859 12.3831C95.8984 12.3831 97.361 11.1602 97.361 9.21571C97.361 7.33777 95.8932 6.07387 94.1859 6.07387C92.4578 6.06875 91.0784 7.27125 91.0784 9.21571Z" fill="white"/>
<path d="M105.212 1.55526C105.212 3.62765 102.016 3.62765 102.016 1.55526C102.01 -0.517119 105.212 -0.517119 105.212 1.55526ZM102.255 3.78116V14.5985H104.967V3.79139L102.255 3.78116Z" fill="white"/>
<path d="M115.762 3.82781L118.375 3.84316V14.6093H115.819L115.684 13.0384C115.059 14.3023 113.352 14.9163 112.129 14.9368C108.886 14.9573 106.486 12.9923 106.486 9.216C106.486 5.50618 108.995 3.56172 112.196 3.58219C113.664 3.58219 115.059 4.25763 115.684 5.32709L115.762 3.82781ZM109.203 9.216C109.203 11.2679 110.645 12.4909 112.446 12.4909C116.709 12.4909 116.709 5.96159 112.446 5.96159C110.645 5.96159 109.203 7.16409 109.203 9.216Z" fill="white"/>
</svg>
